<svg width="403.5" height="476.8984375" style="-webkit-tap-highlight-color: rgba(0, 0, 0, 0);"><g transform="translate(20,56.69921875)"><g transform="translate(-9.094999999999999,361.69)"><rect fill="none" stroke="orange" width="381.69000000000005" height="21.81"></rect><g transform="translate(0.54525,0.54525)"><g><rect width="20.7195" height="20.7195" fill="none"></rect><image width="20.7195" height="20.7195" xlink:href="build/images/radial.png"></image></g><text x="21.81" y="8.724" dominant-baseline="middle" style="fill: orange; font-size: 10.905px;">Minimalistic Demo</text><text x="21.81" y="17.448" dominant-baseline="middle" style="fill: orange; font-size: 5.4525px;">More information can be found at http://github.com/cidrblock/dld4e</text><text x="305.35200000000003" y="2.72625" dominant-baseline="middle" text-anchor="end" style="fill: orange; font-size: 5.4525px; font-weight: bold;">Author:</text><text x="306.44250000000005" y="2.72625" dominant-baseline="middle" style="fill: orange; font-size: 5.4525px;">hxuu</text><text x="305.35200000000003" y="8.178749999999999" dominant-baseline="middle" text-anchor="end" style="fill: orange; font-size: 5.4525px; font-weight: bold;">Company:</text><text x="306.44250000000005" y="8.178749999999999" dominant-baseline="middle" style="fill: orange; font-size: 5.4525px;">Self</text><text x="305.35200000000003" y="13.63125" dominant-baseline="middle" text-anchor="end" style="fill: orange; font-size: 5.4525px; font-weight: bold;">Date:</text><text x="306.44250000000005" y="13.63125" dominant-baseline="middle" style="fill: orange; font-size: 5.4525px;">4/25/2025</text><text x="305.35200000000003" y="19.08375" dominant-baseline="middle" text-anchor="end" style="fill: orange; font-size: 5.4525px; font-weight: bold;">Version:</text><text x="306.44250000000005" y="19.08375" dominant-baseline="middle" style="fill: orange; font-size: 5.4525px;">1.01</text></g></g><g class="grid" transform="translate(0,341.690)" fill="none" font-size="10" font-family="sans-serif" text-anchor="middle"><path class="domain" stroke="#000" d="M11.405000000000001,-341.69V0.5H353.095V-341.69"></path><g class="tick" opacity="1" transform="translate(25,0)"><line stroke="#000" y2="-341.69" x1="0.5" x2="0.5"></line><text fill="#000" y="3" x="0.5" dy="0.71em"></text></g><g class="tick" opacity="1" transform="translate(60,0)"><line stroke="#000" y2="-341.69" x1="0.5" x2="0.5"></line><text fill="#000" y="3" x="0.5" dy="0.71em"></text></g><g class="tick" opacity="1" transform="translate(95,0)"><line stroke="#000" y2="-341.69" x1="0.5" x2="0.5"></line><text fill="#000" y="3" x="0.5" dy="0.71em"></text></g><g class="tick" opacity="1" transform="translate(130,0)"><line stroke="#000" y2="-341.69" x1="0.5" x2="0.5"></line><text fill="#000" y="3" x="0.5" dy="0.71em"></text></g><g class="tick" opacity="1" transform="translate(165,0)"><line stroke="#000" y2="-341.69" x1="0.5" x2="0.5"></line><text fill="#000" y="3" x="0.5" dy="0.71em"></text></g><g class="tick" opacity="1" transform="translate(200,0)"><line stroke="#000" y2="-341.69" x1="0.5" x2="0.5"></line><text fill="#000" y="3" x="0.5" dy="0.71em"></text></g><g class="tick" opacity="1" transform="translate(235,0)"><line stroke="#000" y2="-341.69" x1="0.5" x2="0.5"></line><text fill="#000" y="3" x="0.5" dy="0.71em"></text></g><g class="tick" opacity="1" transform="translate(270,0)"><line stroke="#000" y2="-341.69" x1="0.5" x2="0.5"></line><text fill="#000" y="3" x="0.5" dy="0.71em"></text></g><g class="tick" opacity="1" transform="translate(305,0)"><line stroke="#000" y2="-341.69" x1="0.5" x2="0.5"></line><text fill="#000" y="3" x="0.5" dy="0.71em"></text></g><g class="tick" opacity="1" transform="translate(340,0)"><line stroke="#000" y2="-341.69" x1="0.5" x2="0.5"></line><text fill="#000" y="3" x="0.5" dy="0.71em"></text></g></g><g class="grid" transform="translate(10.905000000000001,0)" fill="none" font-size="10" font-family="sans-serif" text-anchor="end"><path class="domain" stroke="#000" d="M341.69,0.5H0.5V342.19H341.69"></path><g class="tick" opacity="1" transform="translate(0,14)"><line stroke="#000" x2="341.69" y1="0.5" y2="0.5"></line><text fill="#000" x="-3" y="0.5" dy="0.32em"></text></g><g class="tick" opacity="1" transform="translate(0,49)"><line stroke="#000" x2="341.69" y1="0.5" y2="0.5"></line><text fill="#000" x="-3" y="0.5" dy="0.32em"></text></g><g class="tick" opacity="1" transform="translate(0,84)"><line stroke="#000" x2="341.69" y1="0.5" y2="0.5"></line><text fill="#000" x="-3" y="0.5" dy="0.32em"></text></g><g class="tick" opacity="1" transform="translate(0,119)"><line stroke="#000" x2="341.69" y1="0.5" y2="0.5"></line><text fill="#000" x="-3" y="0.5" dy="0.32em"></text></g><g class="tick" opacity="1" transform="translate(0,154)"><line stroke="#000" x2="341.69" y1="0.5" y2="0.5"></line><text fill="#000" x="-3" y="0.5" dy="0.32em"></text></g><g class="tick" opacity="1" transform="translate(0,189)"><line stroke="#000" x2="341.69" y1="0.5" y2="0.5"></line><text fill="#000" x="-3" y="0.5" dy="0.32em"></text></g><g class="tick" opacity="1" transform="translate(0,224)"><line stroke="#000" x2="341.69" y1="0.5" y2="0.5"></line><text fill="#000" x="-3" y="0.5" dy="0.32em"></text></g><g class="tick" opacity="1" transform="translate(0,259)"><line stroke="#000" x2="341.69" y1="0.5" y2="0.5"></line><text fill="#000" x="-3" y="0.5" dy="0.32em"></text></g><g class="tick" opacity="1" transform="translate(0,294)"><line stroke="#000" x2="341.69" y1="0.5" y2="0.5"></line><text fill="#000" x="-3" y="0.5" dy="0.32em"></text></g><g class="tick" opacity="1" transform="translate(0,329)"><line stroke="#000" x2="341.69" y1="0.5" y2="0.5"></line><text fill="#000" x="-3" y="0.5" dy="0.32em"></text></g></g><g transform="translate(0,341.690)" class="axisNone" fill="none" font-size="10" font-family="sans-serif" text-anchor="middle"><path class="domain" stroke="#000" d="M11.405000000000001,6V0.5H353.095V6"></path><g class="tick" opacity="1" transform="translate(25,0)"><line stroke="#000" y2="6" x1="0.5" x2="0.5"></line><text fill="#000" y="9" x="0.5" dy="0.71em">0</text></g><g class="tick" opacity="1" transform="translate(60,0)"><line stroke="#000" y2="6" x1="0.5" x2="0.5"></line><text fill="#000" y="9" x="0.5" dy="0.71em">1</text></g><g class="tick" opacity="1" transform="translate(95,0)"><line stroke="#000" y2="6" x1="0.5" x2="0.5"></line><text fill="#000" y="9" x="0.5" dy="0.71em">2</text></g><g class="tick" opacity="1" transform="translate(130,0)"><line stroke="#000" y2="6" x1="0.5" x2="0.5"></line><text fill="#000" y="9" x="0.5" dy="0.71em">3</text></g><g class="tick" opacity="1" transform="translate(165,0)"><line stroke="#000" y2="6" x1="0.5" x2="0.5"></line><text fill="#000" y="9" x="0.5" dy="0.71em">4</text></g><g class="tick" opacity="1" transform="translate(200,0)"><line stroke="#000" y2="6" x1="0.5" x2="0.5"></line><text fill="#000" y="9" x="0.5" dy="0.71em">5</text></g><g class="tick" opacity="1" transform="translate(235,0)"><line stroke="#000" y2="6" x1="0.5" x2="0.5"></line><text fill="#000" y="9" x="0.5" dy="0.71em">6</text></g><g class="tick" opacity="1" transform="translate(270,0)"><line stroke="#000" y2="6" x1="0.5" x2="0.5"></line><text fill="#000" y="9" x="0.5" dy="0.71em">7</text></g><g class="tick" opacity="1" transform="translate(305,0)"><line stroke="#000" y2="6" x1="0.5" x2="0.5"></line><text fill="#000" y="9" x="0.5" dy="0.71em">8</text></g><g class="tick" opacity="1" transform="translate(340,0)"><line stroke="#000" y2="6" x1="0.5" x2="0.5"></line><text fill="#000" y="9" x="0.5" dy="0.71em">9</text></g></g><g transform="translate(10.905000000000001,0)" class="axisNone" fill="none" font-size="10" font-family="sans-serif" text-anchor="end"><path class="domain" stroke="#000" d="M-6,0.5H0.5V342.19H-6"></path><g class="tick" opacity="1" transform="translate(0,14)"><line stroke="#000" x2="-6" y1="0.5" y2="0.5"></line><text fill="#000" x="-9" y="0.5" dy="0.32em">9</text></g><g class="tick" opacity="1" transform="translate(0,49)"><line stroke="#000" x2="-6" y1="0.5" y2="0.5"></line><text fill="#000" x="-9" y="0.5" dy="0.32em">8</text></g><g class="tick" opacity="1" transform="translate(0,84)"><line stroke="#000" x2="-6" y1="0.5" y2="0.5"></line><text fill="#000" x="-9" y="0.5" dy="0.32em">7</text></g><g class="tick" opacity="1" transform="translate(0,119)"><line stroke="#000" x2="-6" y1="0.5" y2="0.5"></line><text fill="#000" x="-9" y="0.5" dy="0.32em">6</text></g><g class="tick" opacity="1" transform="translate(0,154)"><line stroke="#000" x2="-6" y1="0.5" y2="0.5"></line><text fill="#000" x="-9" y="0.5" dy="0.32em">5</text></g><g class="tick" opacity="1" transform="translate(0,189)"><line stroke="#000" x2="-6" y1="0.5" y2="0.5"></line><text fill="#000" x="-9" y="0.5" dy="0.32em">4</text></g><g class="tick" opacity="1" transform="translate(0,224)"><line stroke="#000" x2="-6" y1="0.5" y2="0.5"></line><text fill="#000" x="-9" y="0.5" dy="0.32em">3</text></g><g class="tick" opacity="1" transform="translate(0,259)"><line stroke="#000" x2="-6" y1="0.5" y2="0.5"></line><text fill="#000" x="-9" y="0.5" dy="0.32em">2</text></g><g class="tick" opacity="1" transform="translate(0,294)"><line stroke="#000" x2="-6" y1="0.5" y2="0.5"></line><text fill="#000" x="-9" y="0.5" dy="0.32em">1</text></g><g class="tick" opacity="1" transform="translate(0,329)"><line stroke="#000" x2="-6" y1="0.5" y2="0.5"></line><text fill="#000" x="-9" y="0.5" dy="0.32em">0</text></g></g><path id="path0" d="M24.5,328.5L129.5,328.5" style="stroke: orange; fill: none; stroke-dasharray: 0, 0; stroke-width: 1;"></path><path id="path1" d="M129.5,328.5L234.5,328.5" style="stroke: orange; fill: none; stroke-dasharray: 0, 0; stroke-width: 1;"></path><path id="path2" d="M234.5,328.5L339.5,328.5" style="stroke: orange; fill: none; stroke-dasharray: 0, 0; stroke-width: 1;"></path><path id="path3" d="M24.5,223.5L339.5,328.5" style="stroke: orange; fill: none; stroke-dasharray: 0, 0; stroke-width: 1;"></path><path id="path4" d="M24.5,223.5L129.5,223.5" style="stroke: orange; fill: none; stroke-dasharray: 0, 0; stroke-width: 1;"></path><g id="CE1" transform="translate(14,318)"><rect rx="1.05" ry="1.05" width="21" height="21" fill="none" style="stroke: orange; stroke-dasharray: 0, 0;"></rect><svg xmlns="http://www.w3.org/2000/svg" viewBox="0 0 46.25 31.25" height="16.2" width="18.900000000000002" x="1.05" y="1.05"><path d="M46.23 9.19c0 4.937-10.293 8.94-22.987 8.94-12.7 0-22.994-4.003-22.994-8.94v13.095c0 4.936 10.293 8.94 22.994 8.94 12.695 0 22.987-4.004 22.987-8.94V9.19" fill="#026c9b"></path><path d="M46.23 9.19c0 4.937-10.293 8.94-22.987 8.94-12.7 0-22.994-4.003-22.994-8.94v13.095c0 4.936 10.293 8.94 22.994 8.94 12.695 0 22.987-4.004 22.987-8.94V9.19z" fill="none" stroke="#fff" stroke-width=".5"></path><path d="M23.243 18.13c12.695 0 22.987-4.004 22.987-8.94 0-4.943-10.292-8.942-22.987-8.942-12.7 0-22.994 4-22.994 8.942 0 4.936 10.293 8.94 22.994 8.94" fill="#026c9b"></path><path d="M23.243 18.13c12.695 0 22.987-4.004 22.987-8.94 0-4.943-10.292-8.942-22.987-8.942-12.7 0-22.994 4-22.994 8.942 0 4.936 10.293 8.94 22.994 8.94z" fill="none" stroke="#fff" stroke-width=".5"></path><path d="M17.994 5.694l1.894 2.846-7.178 1.66 1.567-1.309L3.19 6.997l2.777-2.084 10.709 1.81 1.319-1.03M28.091 12.598l-1.294-2.935 6.474-1.294-1.122 1.006 10.791 1.841-2.589 2.075-10.728-2.016-1.532 1.323M24.551 4.14l7.25-1.986.09 3.11-1.817-.346-3.536 2.933-3.38-.492 3.653-2.872-2.26-.347M21.445 15.274l-6.909 1.298-.259-3.193 1.988.43 3.799-3.248 3.364.567-4.058 3.54 2.075.606" fill="#fff"></path></svg><text class="iconLabel" id="CE1-text" transform="translate(10.5,18.5)rotate(0)" fill="orange" text-anchor="middle" dominant-baseline="central" style="font-size: 3px;">CE1</text></g><g id="PE1" transform="translate(119,318)"><rect rx="1.05" ry="1.05" width="21" height="21" fill="none" style="stroke: orange; stroke-dasharray: 0, 0;"></rect><svg xmlns="http://www.w3.org/2000/svg" viewBox="0 0 46.25 31.25" height="16.2" width="18.900000000000002" x="1.05" y="1.05"><path d="M46.23 9.19c0 4.937-10.293 8.94-22.987 8.94-12.7 0-22.994-4.003-22.994-8.94v13.095c0 4.936 10.293 8.94 22.994 8.94 12.695 0 22.987-4.004 22.987-8.94V9.19" fill="#026c9b"></path><path d="M46.23 9.19c0 4.937-10.293 8.94-22.987 8.94-12.7 0-22.994-4.003-22.994-8.94v13.095c0 4.936 10.293 8.94 22.994 8.94 12.695 0 22.987-4.004 22.987-8.94V9.19z" fill="none" stroke="#fff" stroke-width=".5"></path><path d="M23.243 18.13c12.695 0 22.987-4.004 22.987-8.94 0-4.943-10.292-8.942-22.987-8.942-12.7 0-22.994 4-22.994 8.942 0 4.936 10.293 8.94 22.994 8.94" fill="#026c9b"></path><path d="M23.243 18.13c12.695 0 22.987-4.004 22.987-8.94 0-4.943-10.292-8.942-22.987-8.942-12.7 0-22.994 4-22.994 8.942 0 4.936 10.293 8.94 22.994 8.94z" fill="none" stroke="#fff" stroke-width=".5"></path><path d="M17.994 5.694l1.894 2.846-7.178 1.66 1.567-1.309L3.19 6.997l2.777-2.084 10.709 1.81 1.319-1.03M28.091 12.598l-1.294-2.935 6.474-1.294-1.122 1.006 10.791 1.841-2.589 2.075-10.728-2.016-1.532 1.323M24.551 4.14l7.25-1.986.09 3.11-1.817-.346-3.536 2.933-3.38-.492 3.653-2.872-2.26-.347M21.445 15.274l-6.909 1.298-.259-3.193 1.988.43 3.799-3.248 3.364.567-4.058 3.54 2.075.606" fill="#fff"></path></svg><text class="iconLabel" id="PE1-text" transform="translate(10.5,18.5)rotate(0)" fill="orange" text-anchor="middle" dominant-baseline="central" style="font-size: 3px;">PE1</text></g><g id="P1" transform="translate(224,318)"><rect rx="1.05" ry="1.05" width="21" height="21" fill="none" style="stroke: orange; stroke-dasharray: 0, 0;"></rect><svg xmlns="http://www.w3.org/2000/svg" viewBox="0 0 46.25 31.25" height="16.2" width="18.900000000000002" x="1.05" y="1.05"><path d="M46.23 9.19c0 4.937-10.293 8.94-22.987 8.94-12.7 0-22.994-4.003-22.994-8.94v13.095c0 4.936 10.293 8.94 22.994 8.94 12.695 0 22.987-4.004 22.987-8.94V9.19" fill="#026c9b"></path><path d="M46.23 9.19c0 4.937-10.293 8.94-22.987 8.94-12.7 0-22.994-4.003-22.994-8.94v13.095c0 4.936 10.293 8.94 22.994 8.94 12.695 0 22.987-4.004 22.987-8.94V9.19z" fill="none" stroke="#fff" stroke-width=".5"></path><path d="M23.243 18.13c12.695 0 22.987-4.004 22.987-8.94 0-4.943-10.292-8.942-22.987-8.942-12.7 0-22.994 4-22.994 8.942 0 4.936 10.293 8.94 22.994 8.94" fill="#026c9b"></path><path d="M23.243 18.13c12.695 0 22.987-4.004 22.987-8.94 0-4.943-10.292-8.942-22.987-8.942-12.7 0-22.994 4-22.994 8.942 0 4.936 10.293 8.94 22.994 8.94z" fill="none" stroke="#fff" stroke-width=".5"></path><path d="M17.994 5.694l1.894 2.846-7.178 1.66 1.567-1.309L3.19 6.997l2.777-2.084 10.709 1.81 1.319-1.03M28.091 12.598l-1.294-2.935 6.474-1.294-1.122 1.006 10.791 1.841-2.589 2.075-10.728-2.016-1.532 1.323M24.551 4.14l7.25-1.986.09 3.11-1.817-.346-3.536 2.933-3.38-.492 3.653-2.872-2.26-.347M21.445 15.274l-6.909 1.298-.259-3.193 1.988.43 3.799-3.248 3.364.567-4.058 3.54 2.075.606" fill="#fff"></path></svg><text class="iconLabel" id="P1-text" transform="translate(10.5,18.5)rotate(0)" fill="orange" text-anchor="middle" dominant-baseline="central" style="font-size: 3px;">P1</text></g><g id="P2" transform="translate(329,318)"><rect rx="1.05" ry="1.05" width="21" height="21" fill="none" style="stroke: orange; stroke-dasharray: 0, 0;"></rect><svg xmlns="http://www.w3.org/2000/svg" viewBox="0 0 46.25 31.25" height="16.2" width="18.900000000000002" x="1.05" y="1.05"><path d="M46.23 9.19c0 4.937-10.293 8.94-22.987 8.94-12.7 0-22.994-4.003-22.994-8.94v13.095c0 4.936 10.293 8.94 22.994 8.94 12.695 0 22.987-4.004 22.987-8.94V9.19" fill="#026c9b"></path><path d="M46.23 9.19c0 4.937-10.293 8.94-22.987 8.94-12.7 0-22.994-4.003-22.994-8.94v13.095c0 4.936 10.293 8.94 22.994 8.94 12.695 0 22.987-4.004 22.987-8.94V9.19z" fill="none" stroke="#fff" stroke-width=".5"></path><path d="M23.243 18.13c12.695 0 22.987-4.004 22.987-8.94 0-4.943-10.292-8.942-22.987-8.942-12.7 0-22.994 4-22.994 8.942 0 4.936 10.293 8.94 22.994 8.94" fill="#026c9b"></path><path d="M23.243 18.13c12.695 0 22.987-4.004 22.987-8.94 0-4.943-10.292-8.942-22.987-8.942-12.7 0-22.994 4-22.994 8.942 0 4.936 10.293 8.94 22.994 8.94z" fill="none" stroke="#fff" stroke-width=".5"></path><path d="M17.994 5.694l1.894 2.846-7.178 1.66 1.567-1.309L3.19 6.997l2.777-2.084 10.709 1.81 1.319-1.03M28.091 12.598l-1.294-2.935 6.474-1.294-1.122 1.006 10.791 1.841-2.589 2.075-10.728-2.016-1.532 1.323M24.551 4.14l7.25-1.986.09 3.11-1.817-.346-3.536 2.933-3.38-.492 3.653-2.872-2.26-.347M21.445 15.274l-6.909 1.298-.259-3.193 1.988.43 3.799-3.248 3.364.567-4.058 3.54 2.075.606" fill="#fff"></path></svg><text class="iconLabel" id="P2-text" transform="translate(10.5,18.5)rotate(0)" fill="orange" text-anchor="middle" dominant-baseline="central" style="font-size: 3px;">P2</text></g><g id="PE2" transform="translate(14,213)"><rect rx="1.05" ry="1.05" width="21" height="21" fill="none" style="stroke: orange; stroke-dasharray: 0, 0;"></rect><svg xmlns="http://www.w3.org/2000/svg" viewBox="0 0 46.25 31.25" height="16.2" width="18.900000000000002" x="1.05" y="1.05"><path d="M46.23 9.19c0 4.937-10.293 8.94-22.987 8.94-12.7 0-22.994-4.003-22.994-8.94v13.095c0 4.936 10.293 8.94 22.994 8.94 12.695 0 22.987-4.004 22.987-8.94V9.19" fill="#026c9b"></path><path d="M46.23 9.19c0 4.937-10.293 8.94-22.987 8.94-12.7 0-22.994-4.003-22.994-8.94v13.095c0 4.936 10.293 8.94 22.994 8.94 12.695 0 22.987-4.004 22.987-8.94V9.19z" fill="none" stroke="#fff" stroke-width=".5"></path><path d="M23.243 18.13c12.695 0 22.987-4.004 22.987-8.94 0-4.943-10.292-8.942-22.987-8.942-12.7 0-22.994 4-22.994 8.942 0 4.936 10.293 8.94 22.994 8.94" fill="#026c9b"></path><path d="M23.243 18.13c12.695 0 22.987-4.004 22.987-8.94 0-4.943-10.292-8.942-22.987-8.942-12.7 0-22.994 4-22.994 8.942 0 4.936 10.293 8.94 22.994 8.94z" fill="none" stroke="#fff" stroke-width=".5"></path><path d="M17.994 5.694l1.894 2.846-7.178 1.66 1.567-1.309L3.19 6.997l2.777-2.084 10.709 1.81 1.319-1.03M28.091 12.598l-1.294-2.935 6.474-1.294-1.122 1.006 10.791 1.841-2.589 2.075-10.728-2.016-1.532 1.323M24.551 4.14l7.25-1.986.09 3.11-1.817-.346-3.536 2.933-3.38-.492 3.653-2.872-2.26-.347M21.445 15.274l-6.909 1.298-.259-3.193 1.988.43 3.799-3.248 3.364.567-4.058 3.54 2.075.606" fill="#fff"></path></svg><text class="iconLabel" id="PE2-text" transform="translate(10.5,18.5)rotate(0)" fill="orange" text-anchor="middle" dominant-baseline="central" style="font-size: 3px;">PE2</text></g><g id="CE2" transform="translate(119,213)"><rect rx="1.05" ry="1.05" width="21" height="21" fill="none" style="stroke: orange; stroke-dasharray: 0, 0;"></rect><svg xmlns="http://www.w3.org/2000/svg" viewBox="0 0 46.25 31.25" height="16.2" width="18.900000000000002" x="1.05" y="1.05"><path d="M46.23 9.19c0 4.937-10.293 8.94-22.987 8.94-12.7 0-22.994-4.003-22.994-8.94v13.095c0 4.936 10.293 8.94 22.994 8.94 12.695 0 22.987-4.004 22.987-8.94V9.19" fill="#026c9b"></path><path d="M46.23 9.19c0 4.937-10.293 8.94-22.987 8.94-12.7 0-22.994-4.003-22.994-8.94v13.095c0 4.936 10.293 8.94 22.994 8.94 12.695 0 22.987-4.004 22.987-8.94V9.19z" fill="none" stroke="#fff" stroke-width=".5"></path><path d="M23.243 18.13c12.695 0 22.987-4.004 22.987-8.94 0-4.943-10.292-8.942-22.987-8.942-12.7 0-22.994 4-22.994 8.942 0 4.936 10.293 8.94 22.994 8.94" fill="#026c9b"></path><path d="M23.243 18.13c12.695 0 22.987-4.004 22.987-8.94 0-4.943-10.292-8.942-22.987-8.942-12.7 0-22.994 4-22.994 8.942 0 4.936 10.293 8.94 22.994 8.94z" fill="none" stroke="#fff" stroke-width=".5"></path><path d="M17.994 5.694l1.894 2.846-7.178 1.66 1.567-1.309L3.19 6.997l2.777-2.084 10.709 1.81 1.319-1.03M28.091 12.598l-1.294-2.935 6.474-1.294-1.122 1.006 10.791 1.841-2.589 2.075-10.728-2.016-1.532 1.323M24.551 4.14l7.25-1.986.09 3.11-1.817-.346-3.536 2.933-3.38-.492 3.653-2.872-2.26-.347M21.445 15.274l-6.909 1.298-.259-3.193 1.988.43 3.799-3.248 3.364.567-4.058 3.54 2.075.606" fill="#fff"></path></svg><text class="iconLabel" id="CE2-text" transform="translate(10.5,18.5)rotate(0)" fill="orange" text-anchor="middle" dominant-baseline="central" style="font-size: 3px;">CE2</text></g><text class="connectionLabel" dy="-1" dx="13.499999999999998" style="fill: orange; font-size: 2.625px;"><textPath xlink:href="#path0" style="text-anchor: start;">f0/0</textPath></text><text class="connectionLabel" dy="2.625" style="fill: orange; font-size: 2.625px;" dx="-13.499999999999998"><textPath startOffset="100%" xlink:href="#path0" style="text-anchor: end;">f0/1</textPath></text><text class="connectionLabel" dy="-1" dx="13.499999999999998" style="fill: orange; font-size: 2.625px;"><textPath xlink:href="#path1" style="text-anchor: start;">f0/0</textPath></text><text class="connectionLabel" dy="2.625" style="fill: orange; font-size: 2.625px;" dx="-13.499999999999998"><textPath startOffset="100%" xlink:href="#path1" style="text-anchor: end;">f0/1</textPath></text><text class="connectionLabel" dy="-1" dx="13.499999999999998" style="fill: orange; font-size: 2.625px;"><textPath xlink:href="#path2" style="text-anchor: start;">f0/0</textPath></text><text class="connectionLabel" dy="2.625" style="fill: orange; font-size: 2.625px;" dx="-13.499999999999998"><textPath startOffset="100%" xlink:href="#path2" style="text-anchor: end;">f0/1</textPath></text><text class="connectionLabel" dy="-1" dx="14.067971810589325" style="fill: orange; font-size: 2.625px;"><textPath xlink:href="#path3" style="text-anchor: start;">f0/1</textPath></text><text class="connectionLabel" dy="2.625" style="fill: orange; font-size: 2.625px;" dx="-14.067971810589325"><textPath startOffset="100%" xlink:href="#path3" style="text-anchor: end;">f0/0</textPath></text><text class="connectionLabel" dy="-1" dx="13.499999999999998" style="fill: orange; font-size: 2.625px;"><textPath xlink:href="#path4" style="text-anchor: start;">f0/0</textPath></text><text class="connectionLabel" dy="2.625" style="fill: orange; font-size: 2.625px;" dx="-13.499999999999998"><textPath startOffset="100%" xlink:href="#path4" style="text-anchor: end;">f0/1</textPath></text></g></svg>

